# xmcd CD database file
#
# Track frame offsets:
#	187
#	13847
#	26757
#	40242
#	59540
#	72297
#	83807
#	102885
#	118467
#	130270
#	152042
#
# Disc length: 2324 seconds
#
# Revision: 0
# Processed by: cddbd v1.5PL3 Copyright (c) Steve Scherf et al.
# Submitted via: CDex 1.50
#
DISCID=9809120b
DTITLE=FALLEN ANGELS - Fallen Angels
DYEAR=1983
DGENRE=Hard Rock
TTITLE0=Inner Planet Love
TTITLE1=Black and White World
TTITLE2=Rain Rain Rain
TTITLE3=Falling
TTITLE4=Runaround
TTITLE5=Amphetamine Blue
TTITLE6=Cuckoo Land
TTITLE7=Kiss It Goodbye
TTITLE8=New Society
TTITLE9=Staright City
TTITLE10=Vipers In The Dark
EXTD=YEAR: 1983
EXTT0=
EXTT1=
EXTT2=
EXTT3=
EXTT4=
EXTT5=
EXTT6=
EXTT7=
EXTT8=
EXTT9=
EXTT10=
PLAYORDER=
